<mxfile host="app.diagrams.net" modified="2024-05-09T02:20:42.064Z" agent="Mozilla/5.0 (Windows NT 10.0; Win64; x64) AppleWebKit/537.36 (KHTML, like Gecko) Chrome/124.0.0.0 Safari/537.36" etag="mIEZn-j8xd0dqF3wTxZ7" version="24.3.1" type="device">
  <diagram name="PÃ¡gina-1" id="PTaU9UPacZL9F430mjfD">
    <mxGraphModel dx="1434" dy="780" grid="1" gridSize="10" guides="1" tooltips="1" connect="1" arrows="1" fold="1" page="1" pageScale="1" pageWidth="827" pageHeight="1169" math="0" shadow="0">
      <root>
        <mxCell id="0" />
        <mxCell id="1" parent="0" />
        <mxCell id="mTvcn5c1xsZi8lV0LpWr-18" value="" style="edgeStyle=orthogonalEdgeStyle;rounded=0;orthogonalLoop=1;jettySize=auto;html=1;" parent="1" source="mTvcn5c1xsZi8lV0LpWr-16" edge="1">
          <mxGeometry relative="1" as="geometry">
            <mxPoint x="414" y="150" as="targetPoint" />
          </mxGeometry>
        </mxCell>
        <mxCell id="mTvcn5c1xsZi8lV0LpWr-16" value="Inicio" style="strokeWidth=2;html=1;shape=mxgraph.flowchart.terminator;whiteSpace=wrap;" parent="1" vertex="1">
          <mxGeometry x="364" y="20" width="100" height="60" as="geometry" />
        </mxCell>
        <mxCell id="CdlXuyK48Img5EnvGftB-8" value="" style="edgeStyle=orthogonalEdgeStyle;rounded=0;orthogonalLoop=1;jettySize=auto;html=1;" edge="1" parent="1" source="CdlXuyK48Img5EnvGftB-4" target="CdlXuyK48Img5EnvGftB-7">
          <mxGeometry relative="1" as="geometry" />
        </mxCell>
        <mxCell id="CdlXuyK48Img5EnvGftB-4" value="pessoa1" style="html=1;strokeWidth=2;shape=manualInput;whiteSpace=wrap;rounded=1;size=26;arcSize=11;" vertex="1" parent="1">
          <mxGeometry x="359" y="240" width="100" height="60" as="geometry" />
        </mxCell>
        <mxCell id="CdlXuyK48Img5EnvGftB-5" value="digite o nome a primeira pessoa" style="strokeWidth=2;html=1;shape=mxgraph.flowchart.display;whiteSpace=wrap;" vertex="1" parent="1">
          <mxGeometry x="350" y="140" width="110" height="70" as="geometry" />
        </mxCell>
        <mxCell id="CdlXuyK48Img5EnvGftB-6" style="edgeStyle=orthogonalEdgeStyle;rounded=0;orthogonalLoop=1;jettySize=auto;html=1;entryX=0.46;entryY=0.233;entryDx=0;entryDy=0;entryPerimeter=0;" edge="1" parent="1" source="CdlXuyK48Img5EnvGftB-5" target="CdlXuyK48Img5EnvGftB-4">
          <mxGeometry relative="1" as="geometry" />
        </mxCell>
        <mxCell id="CdlXuyK48Img5EnvGftB-7" value="digite seu peso" style="strokeWidth=2;html=1;shape=mxgraph.flowchart.display;whiteSpace=wrap;" vertex="1" parent="1">
          <mxGeometry x="357" y="330" width="104" height="70" as="geometry" />
        </mxCell>
        <mxCell id="CdlXuyK48Img5EnvGftB-9" value="peso1" style="html=1;strokeWidth=2;shape=manualInput;whiteSpace=wrap;rounded=1;size=26;arcSize=11;" vertex="1" parent="1">
          <mxGeometry x="365" y="430" width="100" height="60" as="geometry" />
        </mxCell>
        <mxCell id="CdlXuyK48Img5EnvGftB-10" style="edgeStyle=orthogonalEdgeStyle;rounded=0;orthogonalLoop=1;jettySize=auto;html=1;entryX=0.44;entryY=0.183;entryDx=0;entryDy=0;entryPerimeter=0;" edge="1" parent="1" source="CdlXuyK48Img5EnvGftB-7" target="CdlXuyK48Img5EnvGftB-9">
          <mxGeometry relative="1" as="geometry" />
        </mxCell>
        <mxCell id="CdlXuyK48Img5EnvGftB-11" value="digite o nome da segunda pessoa" style="strokeWidth=2;html=1;shape=mxgraph.flowchart.display;whiteSpace=wrap;" vertex="1" parent="1">
          <mxGeometry x="352" y="532" width="125" height="60" as="geometry" />
        </mxCell>
        <mxCell id="CdlXuyK48Img5EnvGftB-12" value="pessoa2" style="html=1;strokeWidth=2;shape=manualInput;whiteSpace=wrap;rounded=1;size=26;arcSize=11;" vertex="1" parent="1">
          <mxGeometry x="365" y="620" width="100" height="60" as="geometry" />
        </mxCell>
        <mxCell id="CdlXuyK48Img5EnvGftB-13" value="digite o seu peso" style="strokeWidth=2;html=1;shape=mxgraph.flowchart.display;whiteSpace=wrap;" vertex="1" parent="1">
          <mxGeometry x="365" y="723" width="100" height="60" as="geometry" />
        </mxCell>
        <mxCell id="CdlXuyK48Img5EnvGftB-14" value="peso2" style="html=1;strokeWidth=2;shape=manualInput;whiteSpace=wrap;rounded=1;size=26;arcSize=11;" vertex="1" parent="1">
          <mxGeometry x="365" y="811" width="100" height="60" as="geometry" />
        </mxCell>
        <mxCell id="CdlXuyK48Img5EnvGftB-15" style="edgeStyle=orthogonalEdgeStyle;rounded=0;orthogonalLoop=1;jettySize=auto;html=1;entryX=0.5;entryY=0;entryDx=0;entryDy=0;entryPerimeter=0;" edge="1" parent="1" source="CdlXuyK48Img5EnvGftB-9" target="CdlXuyK48Img5EnvGftB-11">
          <mxGeometry relative="1" as="geometry" />
        </mxCell>
        <mxCell id="CdlXuyK48Img5EnvGftB-16" style="edgeStyle=orthogonalEdgeStyle;rounded=0;orthogonalLoop=1;jettySize=auto;html=1;entryX=0.5;entryY=0.217;entryDx=0;entryDy=0;entryPerimeter=0;" edge="1" parent="1" source="CdlXuyK48Img5EnvGftB-11" target="CdlXuyK48Img5EnvGftB-12">
          <mxGeometry relative="1" as="geometry" />
        </mxCell>
        <mxCell id="CdlXuyK48Img5EnvGftB-17" style="edgeStyle=orthogonalEdgeStyle;rounded=0;orthogonalLoop=1;jettySize=auto;html=1;entryX=0.5;entryY=0;entryDx=0;entryDy=0;entryPerimeter=0;" edge="1" parent="1" source="CdlXuyK48Img5EnvGftB-12" target="CdlXuyK48Img5EnvGftB-13">
          <mxGeometry relative="1" as="geometry" />
        </mxCell>
        <mxCell id="CdlXuyK48Img5EnvGftB-18" style="edgeStyle=orthogonalEdgeStyle;rounded=0;orthogonalLoop=1;jettySize=auto;html=1;entryX=0.5;entryY=0.2;entryDx=0;entryDy=0;entryPerimeter=0;" edge="1" parent="1" source="CdlXuyK48Img5EnvGftB-13" target="CdlXuyK48Img5EnvGftB-14">
          <mxGeometry relative="1" as="geometry" />
        </mxCell>
        <mxCell id="CdlXuyK48Img5EnvGftB-21" value="peso1 &amp;gt;= peso2, peso3" style="rhombus;whiteSpace=wrap;html=1;" vertex="1" parent="1">
          <mxGeometry x="340" y="1390" width="150" height="150" as="geometry" />
        </mxCell>
        <mxCell id="CdlXuyK48Img5EnvGftB-56" style="edgeStyle=orthogonalEdgeStyle;rounded=0;orthogonalLoop=1;jettySize=auto;html=1;entryX=0.5;entryY=0;entryDx=0;entryDy=0;" edge="1" parent="1" source="CdlXuyK48Img5EnvGftB-26" target="CdlXuyK48Img5EnvGftB-55">
          <mxGeometry relative="1" as="geometry" />
        </mxCell>
        <mxCell id="CdlXuyK48Img5EnvGftB-26" value="pessoa1" style="shape=display;whiteSpace=wrap;html=1;" vertex="1" parent="1">
          <mxGeometry x="350" y="1591" width="130" height="65" as="geometry" />
        </mxCell>
        <mxCell id="CdlXuyK48Img5EnvGftB-44" value="digite o nome da terceira pessoa" style="strokeWidth=2;html=1;shape=mxgraph.flowchart.display;whiteSpace=wrap;" vertex="1" parent="1">
          <mxGeometry x="352" y="920" width="125" height="60" as="geometry" />
        </mxCell>
        <mxCell id="CdlXuyK48Img5EnvGftB-45" value="pessoa3" style="html=1;strokeWidth=2;shape=manualInput;whiteSpace=wrap;rounded=1;size=26;arcSize=11;" vertex="1" parent="1">
          <mxGeometry x="364" y="1030" width="100" height="60" as="geometry" />
        </mxCell>
        <mxCell id="CdlXuyK48Img5EnvGftB-46" value="digite seu peso" style="strokeWidth=2;html=1;shape=mxgraph.flowchart.display;whiteSpace=wrap;" vertex="1" parent="1">
          <mxGeometry x="346.5" y="1160" width="125" height="60" as="geometry" />
        </mxCell>
        <mxCell id="CdlXuyK48Img5EnvGftB-47" value="peso3" style="html=1;strokeWidth=2;shape=manualInput;whiteSpace=wrap;rounded=1;size=26;arcSize=11;" vertex="1" parent="1">
          <mxGeometry x="358.5" y="1270" width="100" height="60" as="geometry" />
        </mxCell>
        <mxCell id="CdlXuyK48Img5EnvGftB-48" style="edgeStyle=orthogonalEdgeStyle;rounded=0;orthogonalLoop=1;jettySize=auto;html=1;entryX=0.5;entryY=0;entryDx=0;entryDy=0;entryPerimeter=0;" edge="1" parent="1" source="CdlXuyK48Img5EnvGftB-14" target="CdlXuyK48Img5EnvGftB-44">
          <mxGeometry relative="1" as="geometry" />
        </mxCell>
        <mxCell id="CdlXuyK48Img5EnvGftB-49" style="edgeStyle=orthogonalEdgeStyle;rounded=0;orthogonalLoop=1;jettySize=auto;html=1;entryX=0.5;entryY=0.2;entryDx=0;entryDy=0;entryPerimeter=0;" edge="1" parent="1" source="CdlXuyK48Img5EnvGftB-44" target="CdlXuyK48Img5EnvGftB-45">
          <mxGeometry relative="1" as="geometry" />
        </mxCell>
        <mxCell id="CdlXuyK48Img5EnvGftB-50" style="edgeStyle=orthogonalEdgeStyle;rounded=0;orthogonalLoop=1;jettySize=auto;html=1;entryX=0.505;entryY=0.217;entryDx=0;entryDy=0;entryPerimeter=0;" edge="1" parent="1" source="CdlXuyK48Img5EnvGftB-46" target="CdlXuyK48Img5EnvGftB-47">
          <mxGeometry relative="1" as="geometry" />
        </mxCell>
        <mxCell id="CdlXuyK48Img5EnvGftB-51" style="edgeStyle=orthogonalEdgeStyle;rounded=0;orthogonalLoop=1;jettySize=auto;html=1;" edge="1" parent="1" source="CdlXuyK48Img5EnvGftB-47">
          <mxGeometry relative="1" as="geometry">
            <mxPoint x="408" y="1390" as="targetPoint" />
          </mxGeometry>
        </mxCell>
        <mxCell id="CdlXuyK48Img5EnvGftB-53" style="edgeStyle=orthogonalEdgeStyle;rounded=0;orthogonalLoop=1;jettySize=auto;html=1;entryX=0;entryY=0;entryDx=65;entryDy=0;entryPerimeter=0;" edge="1" parent="1" source="CdlXuyK48Img5EnvGftB-21" target="CdlXuyK48Img5EnvGftB-26">
          <mxGeometry relative="1" as="geometry" />
        </mxCell>
        <mxCell id="CdlXuyK48Img5EnvGftB-55" value="peso2 &amp;gt;= peso1, peso3" style="rhombus;whiteSpace=wrap;html=1;" vertex="1" parent="1">
          <mxGeometry x="336" y="1710" width="158.5" height="148.02" as="geometry" />
        </mxCell>
        <mxCell id="CdlXuyK48Img5EnvGftB-60" style="edgeStyle=orthogonalEdgeStyle;rounded=0;orthogonalLoop=1;jettySize=auto;html=1;entryX=0.5;entryY=0;entryDx=0;entryDy=0;" edge="1" parent="1" source="CdlXuyK48Img5EnvGftB-57" target="CdlXuyK48Img5EnvGftB-59">
          <mxGeometry relative="1" as="geometry" />
        </mxCell>
        <mxCell id="CdlXuyK48Img5EnvGftB-57" value="pessoa2" style="shape=display;whiteSpace=wrap;html=1;" vertex="1" parent="1">
          <mxGeometry x="351" y="1913" width="130" height="65" as="geometry" />
        </mxCell>
        <mxCell id="CdlXuyK48Img5EnvGftB-58" style="edgeStyle=orthogonalEdgeStyle;rounded=0;orthogonalLoop=1;jettySize=auto;html=1;entryX=0;entryY=0;entryDx=65;entryDy=0;entryPerimeter=0;" edge="1" parent="1" source="CdlXuyK48Img5EnvGftB-55" target="CdlXuyK48Img5EnvGftB-57">
          <mxGeometry relative="1" as="geometry" />
        </mxCell>
        <mxCell id="CdlXuyK48Img5EnvGftB-59" value="peso3 &amp;gt;= peso1, peso2" style="rhombus;whiteSpace=wrap;html=1;" vertex="1" parent="1">
          <mxGeometry x="337" y="2030" width="158.5" height="148.02" as="geometry" />
        </mxCell>
        <mxCell id="CdlXuyK48Img5EnvGftB-65" style="edgeStyle=orthogonalEdgeStyle;rounded=0;orthogonalLoop=1;jettySize=auto;html=1;entryX=0.5;entryY=0;entryDx=0;entryDy=0;" edge="1" parent="1" source="CdlXuyK48Img5EnvGftB-62" target="CdlXuyK48Img5EnvGftB-64">
          <mxGeometry relative="1" as="geometry" />
        </mxCell>
        <mxCell id="CdlXuyK48Img5EnvGftB-62" value="pessoa3" style="shape=display;whiteSpace=wrap;html=1;" vertex="1" parent="1">
          <mxGeometry x="357.5" y="2273" width="130" height="65" as="geometry" />
        </mxCell>
        <mxCell id="CdlXuyK48Img5EnvGftB-63" style="edgeStyle=orthogonalEdgeStyle;rounded=0;orthogonalLoop=1;jettySize=auto;html=1;entryX=0.458;entryY=-0.062;entryDx=0;entryDy=0;entryPerimeter=0;" edge="1" parent="1" source="CdlXuyK48Img5EnvGftB-59" target="CdlXuyK48Img5EnvGftB-62">
          <mxGeometry relative="1" as="geometry" />
        </mxCell>
        <mxCell id="CdlXuyK48Img5EnvGftB-67" style="edgeStyle=orthogonalEdgeStyle;rounded=0;orthogonalLoop=1;jettySize=auto;html=1;" edge="1" parent="1" source="CdlXuyK48Img5EnvGftB-64">
          <mxGeometry relative="1" as="geometry">
            <mxPoint x="423" y="2570" as="targetPoint" />
          </mxGeometry>
        </mxCell>
        <mxCell id="CdlXuyK48Img5EnvGftB-64" value="" style="ellipse;whiteSpace=wrap;html=1;aspect=fixed;" vertex="1" parent="1">
          <mxGeometry x="383" y="2430" width="80" height="80" as="geometry" />
        </mxCell>
        <mxCell id="CdlXuyK48Img5EnvGftB-66" value="fim" style="strokeWidth=2;html=1;shape=mxgraph.flowchart.terminator;whiteSpace=wrap;" vertex="1" parent="1">
          <mxGeometry x="374" y="2571" width="100" height="60" as="geometry" />
        </mxCell>
      </root>
    </mxGraphModel>
  </diagram>
</mxfile>
